<svg width="56" height="71" viewBox="0 0 56 71" fill="none" xmlns="http://www.w3.org/2000/svg">
<path d="M9.6954 68.348H8.97179V61.5852H9.73181L12.0164 67.0009H12.0437L14.3147 61.5852H15.0838V68.348H14.3647V63.3101H14.3147L12.385 67.8292H11.6751L9.73181 63.3101H9.6954V68.348ZM17.1136 68.348V63.1462H17.8918V68.348H17.1136ZM16.9133 61.5261C16.9133 61.3561 16.9694 61.2166 17.0817 61.1074C17.197 60.9951 17.3366 60.939 17.5004 60.939C17.6703 60.939 17.8099 60.9951 17.9191 61.1074C18.0313 61.2166 18.0875 61.3561 18.0875 61.5261C18.0875 61.6413 18.0617 61.743 18.0101 61.831C17.9616 61.919 17.8918 61.9872 17.8008 62.0358C17.7097 62.0813 17.6096 62.104 17.5004 62.104C17.3366 62.104 17.197 62.0494 17.0817 61.9402C16.9694 61.831 16.9133 61.6929 16.9133 61.5261ZM19.8487 68.348V63.1462H20.6224V64.1065H20.6724C20.8939 63.4117 21.4203 63.0643 22.2516 63.0643C22.7947 63.0643 23.2256 63.2114 23.5441 63.5057C23.8657 63.797 24.0265 64.2203 24.0265 64.7755V68.348H23.2483V65.0212C23.2483 64.6056 23.1452 64.2885 22.9389 64.0701C22.7356 63.8516 22.4473 63.7424 22.0742 63.7424C21.6009 63.7424 21.2398 63.9017 20.991 64.2203C20.7453 64.5358 20.6224 64.9393 20.6224 65.4308V68.348H19.8487ZM29.9383 63.1462V68.348H29.1646V67.4879H29.1146C29.0266 67.7397 28.8506 67.9612 28.5867 68.1523C28.3257 68.3404 27.9874 68.4345 27.5718 68.4345C27.0166 68.4345 26.5781 68.3025 26.2565 68.0386C25.938 67.7716 25.7787 67.3544 25.7787 66.787V63.1462H26.566V66.5868C26.566 67.3696 26.9604 67.7609 27.7493 67.7609C28.1498 67.7609 28.485 67.635 28.755 67.3832C29.0281 67.1284 29.1646 66.828 29.1646 66.4821V63.1462H29.9383ZM32.0272 63.1462V61.8401H32.8054V63.1462H33.9887V63.8107H32.8054V66.9372C32.8054 67.1526 32.8312 67.318 32.8828 67.4333C32.9374 67.5455 33.0239 67.6244 33.1422 67.6699C33.2636 67.7124 33.438 67.7336 33.6656 67.7336C33.8052 67.7336 33.9387 67.7276 34.0661 67.7154V68.3571C33.9447 68.3814 33.7445 68.3935 33.4653 68.3935C33.165 68.3935 32.9192 68.3662 32.7281 68.3116C32.54 68.254 32.3943 68.1599 32.2912 68.0295C32.1911 67.896 32.1213 67.7427 32.0818 67.5698C32.0454 67.3938 32.0272 67.1708 32.0272 66.9008V63.8107H31.2308V63.1462H32.0272ZM37.4156 68.4345C36.736 68.4345 36.2035 68.2312 35.8182 67.8247C35.4329 67.4151 35.2402 66.8629 35.2402 66.1681V65.3261C35.2402 64.6435 35.4375 64.0959 35.8319 63.6832C36.2263 63.2706 36.7345 63.0643 37.3565 63.0643C37.9784 63.0643 38.4866 63.2706 38.8811 63.6832C39.2755 64.0959 39.4727 64.6435 39.4727 65.3261V65.9633H36.023V66.2272C36.023 66.6672 36.1444 67.0297 36.3871 67.3149C36.6329 67.6001 36.9757 67.7427 37.4156 67.7427C37.719 67.7427 37.9724 67.6821 38.1756 67.5607C38.382 67.4363 38.5139 67.2876 38.5716 67.1147H39.3953C39.371 67.2603 39.3134 67.406 39.2224 67.5516C39.1314 67.6972 39.0085 67.8383 38.8537 67.9748C38.699 68.1114 38.4957 68.2221 38.2439 68.3071C37.9951 68.392 37.719 68.4345 37.4156 68.4345ZM36.023 65.3626H38.6854V65.2715C38.6854 64.9681 38.6292 64.7011 38.517 64.4706C38.4077 64.24 38.2515 64.064 38.0482 63.9426C37.848 63.8182 37.6159 63.756 37.3519 63.756C36.9545 63.756 36.6329 63.8941 36.3871 64.1702C36.1444 64.4433 36.023 64.8104 36.023 65.2715V65.3626ZM40.747 64.6253C40.747 64.1125 40.9275 63.7242 41.2885 63.4602C41.6526 63.1963 42.1032 63.0643 42.6402 63.0643C42.9102 63.0643 43.159 63.1007 43.3866 63.1735C43.6141 63.2463 43.8068 63.3465 43.9645 63.4739C44.1223 63.5983 44.2437 63.7485 44.3286 63.9244C44.4136 64.1004 44.456 64.2931 44.456 64.5024H43.7279C43.7157 64.3689 43.6702 64.2445 43.5914 64.1292C43.5125 64.0109 43.3866 63.9108 43.2136 63.8289C43.0407 63.7469 42.8374 63.706 42.6038 63.706C42.3884 63.706 42.1987 63.7378 42.0349 63.8016C41.8711 63.8653 41.7406 63.9624 41.6435 64.0928C41.5495 64.2203 41.5024 64.3689 41.5024 64.5388C41.5024 64.6602 41.5267 64.7649 41.5753 64.8528C41.6268 64.9408 41.6845 65.0106 41.7482 65.0622C41.8119 65.1107 41.9044 65.1578 42.0258 65.2033C42.1502 65.2488 42.2518 65.2791 42.3307 65.2943C42.4096 65.3095 42.5249 65.3322 42.6766 65.3626C42.6887 65.3626 42.6994 65.3641 42.7085 65.3671C42.7206 65.3701 42.7327 65.3717 42.7449 65.3717C42.757 65.3717 42.7691 65.3762 42.7813 65.3853C42.9633 65.4157 43.1211 65.4475 43.2546 65.4809C43.3881 65.5112 43.5292 65.5522 43.6778 65.6038C43.8265 65.6523 43.9509 65.7115 44.051 65.7813C44.1511 65.851 44.2452 65.9345 44.3332 66.0316C44.4242 66.1286 44.4894 66.2439 44.5289 66.3774C44.5713 66.5109 44.5926 66.6596 44.5926 66.8234C44.5926 67.3271 44.406 67.7215 44.0328 68.0067C43.6596 68.2919 43.1666 68.4345 42.5537 68.4345C41.9864 68.4345 41.5267 68.3101 41.1748 68.0613C40.8259 67.8095 40.6514 67.456 40.6514 67.0009H41.416C41.4918 67.5197 41.8832 67.7791 42.5901 67.7791C42.8693 67.7791 43.1029 67.7397 43.291 67.6608C43.4821 67.5819 43.6187 67.4818 43.7006 67.3605C43.7825 67.2361 43.8235 67.0889 43.8235 66.919C43.8235 66.8037 43.7992 66.7021 43.7506 66.6141C43.7051 66.5261 43.649 66.4563 43.5822 66.4047C43.5155 66.3501 43.4154 66.2985 43.2819 66.25C43.1514 66.2015 43.0361 66.1666 42.936 66.1453C42.8389 66.1241 42.6994 66.0938 42.5173 66.0543C42.2776 66.0058 42.088 65.9648 41.9484 65.9314C41.8089 65.895 41.6511 65.8389 41.4751 65.763C41.2992 65.6872 41.1641 65.6038 41.0701 65.5127C40.9791 65.4187 40.9017 65.2988 40.838 65.1532C40.7773 65.0045 40.747 64.8286 40.747 64.6253Z" fill="white"/>
<path d="M51.913 16.992C49.4766 12.9326 46.0349 9.56849 41.9195 7.22363C41.8764 7.19926 41.8256 7.19247 41.7776 7.20469C41.7297 7.21691 41.6883 7.24718 41.6622 7.28918L38.4395 12.4304C38.4254 12.4526 38.416 12.4775 38.412 12.5035C38.4079 12.5295 38.4092 12.556 38.4158 12.5814C38.4225 12.6069 38.4343 12.6307 38.4505 12.6514C38.4668 12.672 38.4871 12.6892 38.5103 12.7016C45.4394 16.519 49.7028 23.7104 49.8315 31.6048C50.045 45.0184 38.1732 55.8651 24.2893 53.7637C15.8538 52.4861 7.5906 44.485 6.0468 36.1021C3.49697 22.3043 13.9703 10.1079 27.3937 9.89709H27.4631C27.4908 9.89763 27.5183 9.89226 27.5437 9.88133C27.5691 9.8704 27.5919 9.85417 27.6106 9.83373C27.6292 9.81328 27.6433 9.78909 27.6518 9.76278C27.6603 9.73646 27.6631 9.70864 27.66 9.68116L27.0476 3.67744C27.0427 3.62859 27.0194 3.58344 26.9823 3.5512C26.9453 3.51895 26.8973 3.50205 26.8482 3.50393C21.3792 3.72175 16.0944 5.53837 11.6491 8.72856C7.20369 11.9188 3.79319 16.3423 1.84035 21.4507C-0.112485 26.5591 -0.521783 32.1277 0.663202 37.4664C1.84819 42.805 4.57534 47.6788 8.50659 51.4835C13.3855 56.2017 19.8159 58.9854 26.598 59.315C33.3801 59.6446 40.0506 57.4978 45.3649 53.275C50.6791 49.0522 54.2741 43.0419 55.479 36.3657C56.6839 29.6894 55.4164 22.8033 51.913 16.992Z" fill="white"/>
<path d="M39.8242 8.36616L42.3972 4.40482C42.4434 4.33324 42.4744 4.25298 42.4883 4.16898C42.5022 4.08498 42.4988 3.99902 42.4781 3.91641C42.4575 3.83379 42.4202 3.75627 42.3684 3.68863C42.3167 3.62098 42.2516 3.56464 42.1772 3.52309C38.0371 1.2057 33.3696 -0.00760682 28.624 3.58842e-05H28.6163C28.5314 0.000417701 28.4475 0.0183999 28.3699 0.0528451C28.2923 0.0872903 28.2227 0.137449 28.1655 0.200148C28.1083 0.262847 28.0647 0.336723 28.0376 0.417102C28.0104 0.49748 28.0003 0.582613 28.0078 0.667115L28.4079 5.33153C28.4157 5.41772 28.4415 5.50132 28.4835 5.57702C28.5255 5.65272 28.5828 5.71885 28.6518 5.7712C28.7208 5.82356 28.7999 5.86098 28.8842 5.88111C28.9684 5.90123 29.0559 5.9036 29.1412 5.88807C32.7871 5.24541 35.9107 6.14514 38.9185 8.51269C38.9863 8.56587 39.0645 8.60443 39.1479 8.62594C39.2314 8.64745 39.3184 8.65145 39.4035 8.63768C39.4886 8.62392 39.5699 8.59268 39.6423 8.54595C39.7148 8.49922 39.7767 8.438 39.8242 8.36616Z" fill="#FFB700"/>
<path d="M27.7971 46.7076C26.2734 46.7076 24.8643 46.4919 23.5698 46.0604C22.2888 45.6289 21.1764 45.0288 20.2325 44.2602C19.2886 43.4916 18.5469 42.5814 18.0076 41.5297C17.4817 40.4779 17.2188 39.3317 17.2188 38.0912C17.2188 37.9968 17.2188 37.9429 17.2188 37.9294C17.2188 37.9024 17.2188 37.8754 17.2188 37.8485C17.2188 37.8215 17.2188 37.7743 17.2188 37.7069C17.2322 37.6395 17.2457 37.5114 17.2592 37.3226H22.9024V37.3833C22.9158 38.017 23.0507 38.6036 23.3069 39.1429C23.5766 39.6688 23.9406 40.1206 24.3991 40.4981C24.8576 40.8757 25.3969 41.1723 26.0172 41.3881C26.651 41.5903 27.3454 41.6915 28.1005 41.6915C28.95 41.6915 29.7321 41.5431 30.4468 41.2465C31.1749 40.9364 31.7952 40.5183 32.3076 39.9925C32.82 39.4531 33.2178 38.8193 33.501 38.0912C33.7976 37.363 33.9459 36.5675 33.9459 35.7045C33.9459 34.9763 33.8246 34.3223 33.5819 33.7425C33.3392 33.1627 33.002 32.6705 32.5706 32.266C32.1391 31.848 31.6199 31.5311 31.0131 31.3154C30.4198 31.0996 29.7726 30.9917 29.0714 30.9917C28.114 30.9917 27.2038 31.194 26.3408 31.5985C25.4913 31.9896 24.7969 32.5087 24.2575 33.156H18.6548L23.5496 16.7726H41.7331L40.6611 21.8494H27.3926L25.1475 28.868L25.4913 28.8882C26.2464 28.1331 27.1162 27.56 28.1005 27.169C29.0984 26.7779 30.1771 26.5824 31.3367 26.5824C32.5099 26.5824 33.6088 26.7981 34.6336 27.2296C35.6584 27.6476 36.5484 28.2342 37.3035 28.9893C38.0721 29.731 38.6722 30.6209 39.1037 31.6592C39.5352 32.6975 39.7509 33.8234 39.7509 35.037C39.7509 36.736 39.461 38.3002 38.8812 39.7295C38.3148 41.1454 37.5058 42.3724 36.454 43.4107C35.4157 44.449 34.1617 45.258 32.6919 45.8379C31.2221 46.4177 29.5905 46.7076 27.7971 46.7076Z" fill="white"/>
</svg>
