<svg width="149" height="34" viewBox="0 0 149 34" fill="none" xmlns="http://www.w3.org/2000/svg">
<rect x="0.351064" y="0.351064" width="148.298" height="32.7979" rx="16.3989" fill="white"/>
<path d="M19.75 25.4995C24.5825 25.4995 28.5 21.5819 28.5 16.7495C28.5 11.917 24.5825 7.99945 19.75 7.99945C14.9175 7.99945 11 11.917 11 16.7495C11 21.5819 14.9175 25.4995 19.75 25.4995Z" fill="#007AB9"/>
<path d="M24.9782 17.4539V21.0613H22.8867V17.6957C22.8867 16.8506 22.5848 16.2735 21.8275 16.2735C21.2496 16.2735 20.9063 16.662 20.7547 17.0382C20.6996 17.1727 20.6854 17.3594 20.6854 17.548V21.0612H18.5938C18.5938 21.0612 18.6218 15.3608 18.5938 14.7708H20.6856V15.6622C20.6814 15.6692 20.6754 15.6761 20.6717 15.6828H20.6856V15.6622C20.9635 15.2345 21.4592 14.6231 22.5706 14.6231C23.9466 14.6231 24.9782 15.5221 24.9782 17.4539ZM16.4057 11.7386C15.6903 11.7386 15.2222 12.2082 15.2222 12.8253C15.2222 13.4292 15.6767 13.9124 16.3783 13.9124H16.3918C17.1213 13.9124 17.5749 13.4292 17.5749 12.8253C17.561 12.2082 17.1213 11.7386 16.4057 11.7386ZM15.3465 21.0613H17.4374V14.7708H15.3465V21.0613Z" fill="#F1F2F2"/>
<path d="M45.1203 19.8343C44.6654 19.8343 44.2244 19.7697 43.7975 19.6405C43.3763 19.5113 43.042 19.34 42.7949 19.1265L43.174 18.2755C43.4156 18.4665 43.7105 18.6238 44.0587 18.7474C44.4126 18.8653 44.7665 18.9243 45.1203 18.9243C45.5585 18.9243 45.8843 18.8541 46.0977 18.7137C46.3168 18.5732 46.4263 18.3879 46.4263 18.1576C46.4263 17.9891 46.3645 17.8514 46.2409 17.7447C46.123 17.6324 45.9713 17.5453 45.786 17.4835C45.6006 17.4217 45.3478 17.3515 45.0277 17.2729C44.5783 17.1662 44.2132 17.0594 43.9323 16.9527C43.6571 16.846 43.4184 16.6803 43.2162 16.4556C43.0196 16.2253 42.9213 15.9164 42.9213 15.5288C42.9213 15.203 43.0083 14.9081 43.1825 14.6441C43.3622 14.3745 43.629 14.1611 43.9829 14.0038C44.3424 13.8465 44.7805 13.7679 45.2973 13.7679C45.6568 13.7679 46.0106 13.8128 46.3589 13.9027C46.7071 13.9926 47.0077 14.1217 47.2604 14.2903L46.915 15.1412C46.6566 14.9896 46.387 14.8744 46.1061 14.7958C45.8253 14.7171 45.5529 14.6778 45.2889 14.6778C44.8563 14.6778 44.5334 14.7509 44.3199 14.8969C44.1121 15.0429 44.0082 15.2367 44.0082 15.4783C44.0082 15.6468 44.0671 15.7844 44.1851 15.8911C44.3087 15.9978 44.4631 16.0821 44.6485 16.1439C44.8339 16.2057 45.0866 16.2759 45.4068 16.3545C45.8449 16.4556 46.2044 16.5623 46.4853 16.6747C46.7661 16.7814 47.0049 16.9471 47.2014 17.1718C47.4037 17.3965 47.5048 17.6998 47.5048 18.0817C47.5048 18.4075 47.4149 18.7024 47.2351 18.9664C47.061 19.2304 46.7942 19.4411 46.4347 19.5983C46.0752 19.7556 45.6371 19.8343 45.1203 19.8343ZM48.4898 15.2508H49.543V19.75H48.4898V15.2508ZM49.0206 14.5093C48.8296 14.5093 48.6695 14.4503 48.5403 14.3324C48.4111 14.2088 48.3465 14.0571 48.3465 13.8774C48.3465 13.6977 48.4111 13.5488 48.5403 13.4309C48.6695 13.3073 48.8296 13.2455 49.0206 13.2455C49.2115 13.2455 49.3716 13.3045 49.5008 13.4224C49.63 13.5348 49.6946 13.678 49.6946 13.8521C49.6946 14.0375 49.63 14.1948 49.5008 14.324C49.3773 14.4475 49.2172 14.5093 49.0206 14.5093ZM55.3908 15.2508V19.0675C55.3908 20.6515 54.5819 21.4435 52.9642 21.4435C52.5317 21.4435 52.1217 21.3874 51.7341 21.275C51.3465 21.1683 51.0264 21.011 50.7736 20.8032L51.2454 20.0112C51.442 20.1741 51.6892 20.3033 51.9869 20.3988C52.2902 20.4999 52.5963 20.5504 52.9053 20.5504C53.3996 20.5504 53.7619 20.4381 53.9922 20.2134C54.2225 19.9887 54.3376 19.6461 54.3376 19.1855V18.9496C54.1579 19.1462 53.9388 19.295 53.6804 19.3961C53.422 19.4972 53.1384 19.5478 52.8294 19.5478C52.4025 19.5478 52.015 19.4579 51.6667 19.2782C51.3241 19.0928 51.0517 18.8344 50.8494 18.503C50.6528 18.1716 50.5545 17.7925 50.5545 17.3656C50.5545 16.9387 50.6528 16.5623 50.8494 16.2366C51.0517 15.9051 51.3241 15.6496 51.6667 15.4698C52.015 15.2901 52.4025 15.2002 52.8294 15.2002C53.1552 15.2002 53.4501 15.2536 53.7141 15.3603C53.9837 15.467 54.2084 15.6299 54.3882 15.849V15.2508H55.3908ZM52.9895 18.6547C53.3883 18.6547 53.7141 18.5367 53.9669 18.3008C54.2253 18.0593 54.3545 17.7475 54.3545 17.3656C54.3545 16.9892 54.2253 16.6831 53.9669 16.4472C53.7141 16.2113 53.3883 16.0933 52.9895 16.0933C52.5851 16.0933 52.2537 16.2113 51.9953 16.4472C51.7425 16.6831 51.6162 16.9892 51.6162 17.3656C51.6162 17.7475 51.7425 18.0593 51.9953 18.3008C52.2537 18.5367 52.5851 18.6547 52.9895 18.6547ZM59.3284 15.2002C59.8957 15.2002 60.3507 15.3659 60.6933 15.6973C61.0359 16.0287 61.2072 16.5202 61.2072 17.1718V19.75H60.1541V17.3066C60.1541 16.9134 60.0614 16.6185 59.876 16.4219C59.6907 16.2197 59.4267 16.1186 59.084 16.1186C58.6964 16.1186 58.3903 16.2366 58.1656 16.4725C57.9409 16.7028 57.8286 17.037 57.8286 17.4751V19.75H56.7754V15.2508H57.7781V15.8321C57.9522 15.6243 58.1712 15.467 58.4352 15.3603C58.6992 15.2536 58.9969 15.2002 59.3284 15.2002ZM64.8718 15.2508H65.925V19.75H64.8718V15.2508ZM65.4026 14.5093C65.2117 14.5093 65.0516 14.4503 64.9224 14.3324C64.7932 14.2088 64.7286 14.0571 64.7286 13.8774C64.7286 13.6977 64.7932 13.5488 64.9224 13.4309C65.0516 13.3073 65.2117 13.2455 65.4026 13.2455C65.5936 13.2455 65.7537 13.3045 65.8829 13.4224C66.0121 13.5348 66.0767 13.678 66.0767 13.8521C66.0767 14.0375 66.0121 14.1948 65.8829 14.324C65.7593 14.4475 65.5992 14.5093 65.4026 14.5093ZM69.8603 15.2002C70.4276 15.2002 70.8826 15.3659 71.2252 15.6973C71.5678 16.0287 71.7392 16.5202 71.7392 17.1718V19.75H70.686V17.3066C70.686 16.9134 70.5933 16.6185 70.4079 16.4219C70.2226 16.2197 69.9586 16.1186 69.6159 16.1186C69.2284 16.1186 68.9222 16.2366 68.6975 16.4725C68.4729 16.7028 68.3605 17.037 68.3605 17.4751V19.75H67.3073V15.2508H68.31V15.8321C68.4841 15.6243 68.7032 15.467 68.9672 15.3603C69.2312 15.2536 69.5289 15.2002 69.8603 15.2002ZM82.4222 15.2508L80.7624 19.75H79.7513L78.5886 16.6494L77.409 19.75H76.398L74.7465 15.2508H75.7408L76.9288 18.5704L78.1673 15.2508H79.052L80.2653 18.5873L81.487 15.2508H82.4222ZM83.1463 15.2508H84.1995V19.75H83.1463V15.2508ZM83.6772 14.5093C83.4862 14.5093 83.3261 14.4503 83.1969 14.3324C83.0677 14.2088 83.0031 14.0571 83.0031 13.8774C83.0031 13.6977 83.0677 13.5488 83.1969 13.4309C83.3261 13.3073 83.4862 13.2455 83.6772 13.2455C83.8681 13.2455 84.0282 13.3045 84.1574 13.4224C84.2866 13.5348 84.3512 13.678 84.3512 13.8521C84.3512 14.0375 84.2866 14.1948 84.1574 14.324C84.0338 14.4475 83.8737 14.5093 83.6772 14.5093ZM88.2864 19.5057C88.1629 19.6068 88.0112 19.6826 87.8315 19.7331C87.6573 19.7837 87.472 19.809 87.2754 19.809C86.7811 19.809 86.3991 19.6798 86.1295 19.4214C85.8599 19.163 85.7251 18.7867 85.7251 18.2924V16.127H84.9836V15.2845H85.7251V14.2566H86.7783V15.2845H87.9831V16.127H86.7783V18.2671C86.7783 18.4862 86.8316 18.6547 86.9384 18.7726C87.0451 18.885 87.1995 18.9411 87.4018 18.9411C87.6377 18.9411 87.8343 18.8794 87.9915 18.7558L88.2864 19.5057ZM91.7058 15.2002C92.2731 15.2002 92.7281 15.3659 93.0707 15.6973C93.4133 16.0287 93.5847 16.5202 93.5847 17.1718V19.75H92.5315V17.3066C92.5315 16.9134 92.4388 16.6185 92.2534 16.4219C92.0681 16.2197 91.8041 16.1186 91.4614 16.1186C91.0738 16.1186 90.7677 16.2366 90.543 16.4725C90.3184 16.7028 90.206 17.037 90.206 17.4751V19.75H89.1528V13.4983H90.206V15.7731C90.3801 15.5878 90.5936 15.4474 90.8464 15.3519C91.1047 15.2508 91.3912 15.2002 91.7058 15.2002ZM97.3503 13.8521H98.4457V18.8232H101.529V19.75H97.3503V13.8521ZM102.293 15.2508H103.346V19.75H102.293V15.2508ZM102.824 14.5093C102.633 14.5093 102.473 14.4503 102.344 14.3324C102.214 14.2088 102.15 14.0571 102.15 13.8774C102.15 13.6977 102.214 13.5488 102.344 13.4309C102.473 13.3073 102.633 13.2455 102.824 13.2455C103.015 13.2455 103.175 13.3045 103.304 13.4224C103.433 13.5348 103.498 13.678 103.498 13.8521C103.498 14.0375 103.433 14.1948 103.304 14.324C103.181 14.4475 103.02 14.5093 102.824 14.5093ZM107.281 15.2002C107.849 15.2002 108.304 15.3659 108.646 15.6973C108.989 16.0287 109.16 16.5202 109.16 17.1718V19.75H108.107V17.3066C108.107 16.9134 108.014 16.6185 107.829 16.4219C107.644 16.2197 107.38 16.1186 107.037 16.1186C106.65 16.1186 106.343 16.2366 106.119 16.4725C105.894 16.7028 105.782 17.037 105.782 17.4751V19.75H104.729V15.2508H105.731V15.8321C105.905 15.6243 106.124 15.467 106.388 15.3603C106.652 15.2536 106.95 15.2002 107.281 15.2002ZM112.333 17.8206L111.55 18.562V19.75H110.496V13.4983H111.55V17.2729L113.732 15.2508H114.996L113.117 17.1381L115.173 19.75H113.892L112.333 17.8206ZM119.893 17.5257C119.893 17.5987 119.888 17.7026 119.876 17.8374H116.346C116.408 18.1688 116.568 18.4328 116.826 18.6294C117.09 18.8204 117.416 18.9159 117.804 18.9159C118.298 18.9159 118.705 18.753 119.025 18.4272L119.59 19.076C119.388 19.3175 119.132 19.5 118.823 19.6236C118.514 19.7472 118.166 19.809 117.778 19.809C117.284 19.809 116.849 19.7107 116.472 19.5141C116.096 19.3175 115.804 19.0451 115.596 18.6968C115.394 18.3429 115.293 17.9441 115.293 17.5004C115.293 17.0623 115.391 16.6691 115.588 16.3208C115.79 15.9669 116.068 15.6917 116.422 15.4951C116.776 15.2985 117.175 15.2002 117.618 15.2002C118.056 15.2002 118.447 15.2985 118.789 15.4951C119.138 15.6861 119.407 15.9585 119.598 16.3124C119.795 16.6606 119.893 17.0651 119.893 17.5257ZM117.618 16.0428C117.281 16.0428 116.995 16.1439 116.759 16.3461C116.529 16.5427 116.388 16.8067 116.338 17.1381H118.891C118.846 16.8123 118.708 16.5483 118.478 16.3461C118.247 16.1439 117.961 16.0428 117.618 16.0428ZM125.311 13.4983V19.75H124.3V19.1686C124.126 19.3821 123.91 19.5422 123.652 19.6489C123.399 19.7556 123.118 19.809 122.809 19.809C122.377 19.809 121.986 19.7135 121.638 19.5225C121.295 19.3315 121.026 19.0619 120.829 18.7137C120.632 18.3598 120.534 17.9554 120.534 17.5004C120.534 17.0454 120.632 16.6438 120.829 16.2955C121.026 15.9473 121.295 15.6777 121.638 15.4867C121.986 15.2957 122.377 15.2002 122.809 15.2002C123.107 15.2002 123.379 15.2508 123.626 15.3519C123.873 15.453 124.084 15.6046 124.258 15.8069V13.4983H125.311ZM122.935 18.9074C123.188 18.9074 123.416 18.8513 123.618 18.7389C123.82 18.621 123.98 18.4553 124.098 18.2418C124.216 18.0284 124.275 17.7812 124.275 17.5004C124.275 17.2195 124.216 16.9724 124.098 16.7589C123.98 16.5455 123.82 16.3826 123.618 16.2703C123.416 16.1523 123.188 16.0933 122.935 16.0933C122.683 16.0933 122.455 16.1523 122.253 16.2703C122.051 16.3826 121.891 16.5455 121.773 16.7589C121.655 16.9724 121.596 17.2195 121.596 17.5004C121.596 17.7812 121.655 18.0284 121.773 18.2418C121.891 18.4553 122.051 18.621 122.253 18.7389C122.455 18.8513 122.683 18.9074 122.935 18.9074ZM126.79 13.8521H127.886V19.75H126.79V13.8521ZM131.933 15.2002C132.5 15.2002 132.955 15.3659 133.298 15.6973C133.64 16.0287 133.812 16.5202 133.812 17.1718V19.75H132.758V17.3066C132.758 16.9134 132.666 16.6185 132.48 16.4219C132.295 16.2197 132.031 16.1186 131.688 16.1186C131.301 16.1186 130.995 16.2366 130.77 16.4725C130.545 16.7028 130.433 17.037 130.433 17.4751V19.75H129.38V15.2508H130.382V15.8321C130.557 15.6243 130.776 15.467 131.04 15.3603C131.304 15.2536 131.601 15.2002 131.933 15.2002Z" fill="black"/>
<rect x="0.351064" y="0.351064" width="148.298" height="32.7979" rx="16.3989" stroke="#EAEAEA" stroke-width="0.702128"/>
</svg>
